# xmcd CD database file
#
# Track frame offsets:
#	150
#	13652
#	27298
#
# Disc length: 632 seconds
#
# Revision: 2
# Processed by: cddbd v1.5.2PL0 Copyright (c) Steve Scherf et al.
# Submitted via: CDex 1.70beta3
#
DISCID=19027603
DTITLE=椎名林檎 - カーネーション
DYEAR=2011
DGENRE=Alternative
TTITLE0=カーネーション
TTITLE1=私の愛するひと
TTITLE2=人生は思い通り
EXTD=YEAR: 2011
EXTT0=
EXTT1=
EXTT2=
PLAYORDER=
